HIERARCHY
ROOT Hips
{
	OFFSET 0.000000 0.000000 0.000000
	CHANNELS 6 Xposition Yposition Zposition Zrotation Yrotation Xrotation 
	JOINT LHipJoint
	{
		OFFSET 0.000000 0.000000 0.000000
		CHANNELS 3 Zrotation Yrotation Xrotation
		JOINT LeftUpLeg
		{
			OFFSET 1.363060 -1.794630 0.839290
			CHANNELS 3 Zrotation Yrotation Xrotation
			JOINT LeftLeg
			{
				OFFSET 2.448110 -6.726130 0.000000
				CHANNELS 3 Zrotation Yrotation Xrotation
				JOINT LeftFoot
				{
					OFFSET 2.562200 -7.039590 0.000000
					CHANNELS 3 Zrotation Yrotation Xrotation
					JOINT LeftToeBase
					{
						OFFSET 0.157640 -0.433110 2.322550
						CHANNELS 3 Zrotation Yrotation Xrotation
						End Site
						{
							OFFSET 0.000000 0.000000 0.000000
						}
					}
				}
			}
		}
	}
	JOINT RHipJoint
	{
		OFFSET 0.000000 0.000000 0.000000
		CHANNELS 3 Zrotation Yrotation Xrotation
		JOINT RightUpLeg
		{
			OFFSET -1.305520 -1.794630 0.839290
			CHANNELS 3 Zrotation Yrotation Xrotation
			JOINT RightLeg
			{
				OFFSET -2.542530 -6.985550 0.000000
				CHANNELS 3 Zrotation Yrotation Xrotation
				JOINT RightFoot
				{
					OFFSET -2.568260 -7.056230 0.000000
					CHANNELS 3 Zrotation Yrotation Xrotation
					JOINT RightToeBase
					{
						OFFSET -0.164730 -0.452590 2.363150
						CHANNELS 3 Zrotation Yrotation Xrotation
						End Site
						{
							OFFSET 0.000000 0.000000 0.000000
						}
					}
				}
			}
		}
	}
	JOINT LowerBack
	{
		OFFSET 0.000000 0.000000 0.000000
		CHANNELS 3 Zrotation Yrotation Xrotation
		JOINT Spine
		{
			OFFSET 0.028270 2.035590 -0.193380
			CHANNELS 3 Zrotation Yrotation Xrotation
			JOINT Spine1
			{
				OFFSET 0.056720 2.048850 -0.042750
				CHANNELS 3 Zrotation Yrotation Xrotation
				JOINT Neck
				{
					OFFSET 0.000000 0.000000 0.000000
					CHANNELS 3 Zrotation Yrotation Xrotation
					JOINT Neck1
					{
						OFFSET -0.054170 1.746240 0.172020
						CHANNELS 3 Zrotation Yrotation Xrotation
						JOINT Head
						{
							OFFSET 0.104070 1.761360 -0.123970
							CHANNELS 3 Zrotation Yrotation Xrotation
							End Site
							{
								OFFSET 0.000000 0.000000 0.000000
							}
						}
					}
				}
				JOINT LeftShoulder
				{
					OFFSET 0.000000 0.000000 0.000000
					CHANNELS 3 Zrotation Yrotation Xrotation
					JOINT LeftArm
					{
						OFFSET 3.362410 1.200890 -0.311210
						CHANNELS 3 Zrotation Yrotation Xrotation
						JOINT LeftForeArm
						{
							OFFSET 4.983000 -0.000000 -0.000000
							CHANNELS 3 Zrotation Yrotation Xrotation
							JOINT LeftHand
							{
								OFFSET 3.483560 -0.000000 -0.000000
								CHANNELS 3 Zrotation Yrotation Xrotation
								JOINT LeftFingerBase
								{
									OFFSET 0.000000 0.000000 0.000000
									CHANNELS 3 Zrotation Yrotation Xrotation
									JOINT LeftHandIndex1
									{
										OFFSET 0.715260 -0.000000 -0.000000
										CHANNELS 3 Zrotation Yrotation Xrotation
										End Site
										{
											OFFSET 0.000000 0.000000 0.000000
										}
									}
								}
								JOINT LThumb
								{
									OFFSET 0.000000 0.000000 0.000000
									CHANNELS 3 Zrotation Yrotation Xrotation
									End Site
									{
										OFFSET 0.000000 0.000000 0.000000
									}
								}
							}
						}
					}
				}
				JOINT RightShoulder
				{
					OFFSET 0.000000 0.000000 0.000000
					CHANNELS 3 Zrotation Yrotation Xrotation
					JOINT RightArm
					{
						OFFSET -3.136600 1.374050 -0.404650
						CHANNELS 3 Zrotation Yrotation Xrotation
						JOINT RightForeArm
						{
							OFFSET -5.241900 -0.000000 -0.000000
							CHANNELS 3 Zrotation Yrotation Xrotation
							JOINT RightHand
							{
								OFFSET -3.444170 -0.000000 -0.000000
								CHANNELS 3 Zrotation Yrotation Xrotation
								JOINT RightFingerBase
								{
									OFFSET 0.000000 0.000000 0.000000
									CHANNELS 3 Zrotation Yrotation Xrotation
									JOINT RightHandIndex1
									{
										OFFSET -0.622530 -0.000000 -0.000000
										CHANNELS 3 Zrotation Yrotation Xrotation
										End Site
										{
											OFFSET 0.000000 0.000000 0.000000
										}
									}
								}
								JOINT RThumb
								{
									OFFSET 0.000000 0.000000 0.000000
									CHANNELS 3 Zrotation Yrotation Xrotation
									End Site
									{
										OFFSET 0.000000 0.000000 0.000000
									}
								}
							}
						}
					}
				}
			}
		}
	}
}
MOTION
Frames: 9
Frame Time: 0.008333
4.880993 16.379546 -2.806496 -166.634258 76.313624 -149.565682 -10.484556 1.772563 1.015272 -19.821602 -3.054856 -16.337935 -2.541165 0.454823 30.159974 2.620741 7.335395 -28.261176 -3.530500 -0.000000 -4.101600 9.587092 -0.252677 1.069160 2.404568 6.441372 -36.759673 -0.967880 -3.749980 64.542209 -2.513252 -11.946313 -11.878241 0.554700 0.000000 -36.043500 1.401496 -2.413772 -1.472496 -0.247335 -2.555726 -3.331572 -7.029308 -2.435765 -1.363064 9.272157 -14.227441 -8.251647 -2.985205 -0.220577 -0.170410 0.000000 0.000000 0.000000 1.785371 7.213402 -0.038731 -71.622299 -6.559295 36.293733 -179.136603 -75.974789 179.935350 9.322693 -6.973609 -0.646530 -0.341284 0.744448 -0.000000 0.000000 0.000000 0.000000 0.000000 0.000000 0.000000 7.720792 -8.830950 -0.979085 73.581922 -11.365001 24.881200 -179.999420 76.623181 179.942917 -7.580990 10.814242 -0.764806 0.082345 -0.600920 -0.000000 0.000000 0.000000 0.000000 0.000000 0.000000 0.000000 
5.105288 16.458533 -2.903783 -166.365521 75.530885 -149.268060 -10.648562 1.866297 1.053549 -19.120299 -2.822279 -14.722131 -2.484585 0.374076 28.421435 2.317181 6.603268 -26.109739 -2.925600 -0.000000 -7.057600 9.371012 -0.201227 1.240725 2.752963 6.989202 -37.193222 -0.798829 -3.612815 62.473682 -2.526698 -11.780633 -11.917534 0.534300 0.000000 -36.427300 1.839983 -2.585241 -1.660173 -0.105083 -2.760721 -3.356874 -6.843870 -2.644371 -1.335356 9.150348 -14.645004 -8.316919 -2.969566 -0.219653 -0.179541 0.000000 0.000000 0.000000 2.470135 6.928433 -0.147545 -72.736719 -6.635710 36.300853 -179.070915 -74.723245 179.936123 8.915097 -7.112289 -0.631878 -0.333139 0.774192 0.000000 0.000000 0.000000 0.000000 0.000000 0.000000 0.000000 7.376548 -9.326826 -0.999660 72.840514 -12.224904 25.339714 179.980689 75.320409 179.946334 -6.833766 11.010324 -0.700568 0.064533 -0.609619 -0.000000 0.000000 0.000000 0.000000 0.000000 0.000000 0.000000 
5.331764 16.545050 -3.002927 -166.173214 74.746007 -149.063891 -10.822587 1.982359 1.080358 -18.400540 -2.490563 -13.153378 -2.409317 0.317563 26.683883 1.999373 5.875028 -23.588323 -2.315500 0.000000 -10.700400 9.148431 -0.166383 1.407505 3.108097 7.463528 -37.490876 -0.610359 -3.458634 60.074827 -2.540419 -11.605128 -11.877231 0.493500 0.000001 -36.912600 2.266880 -2.769078 -1.834660 0.035871 -2.976999 -3.381377 -6.657791 -2.865738 -1.304095 9.036553 -15.049871 -8.393349 -2.955941 -0.218714 -0.192134 0.000000 0.000000 0.000000 3.117041 6.681769 -0.251987 -73.777162 -6.617441 36.311059 -179.015849 -73.499926 179.936612 8.574745 -7.218769 -0.618028 -0.325652 0.801452 0.000000 0.000000 0.000000 0.000000 0.000000 0.000000 0.000000 7.063529 -9.817803 -1.025484 72.129837 -12.985173 25.751303 179.958768 74.132041 179.949686 -6.102228 11.214749 -0.635744 0.046635 -0.618014 -0.000000 0.000000 0.000000 0.000000 0.000000 0.000000 0.000000 
5.560066 16.637767 -3.103637 -166.063265 73.963844 -148.960987 -11.002493 2.120028 1.094551 -17.672206 -2.070057 -11.629643 -2.316726 0.286678 24.952703 1.679732 5.165160 -20.719640 -1.725500 -0.000000 -14.937600 8.922730 -0.149333 1.568067 3.464301 7.858701 -37.644670 -0.402340 -3.286878 57.340662 -2.547953 -11.392602 -11.743694 0.428899 0.000000 -37.476500 2.677364 -2.959857 -1.992778 0.173672 -3.198637 -3.404801 -6.473501 -3.093803 -1.270307 8.924303 -15.434826 -8.474491 -2.943400 -0.217752 -0.206502 0.000000 0.000000 0.000000 3.713219 6.465936 -0.349175 -74.731424 -6.526708 36.338563 -178.973004 -72.332984 179.936871 8.291456 -7.302843 -0.605683 -0.318700 0.826134 -0.000000 0.000000 0.000000 0.000000 0.000000 0.000000 0.000000 6.774732 -10.295687 -1.056059 71.473784 -13.663238 26.088688 179.936575 73.090128 179.952783 -5.430845 11.398904 -0.573528 0.029775 -0.625032 0.000000 0.000000 0.000000 0.000000 0.000000 0.000000 0.000000 
5.789666 16.735140 -3.205802 -166.011983 73.189985 -148.941530 -11.186986 2.276774 1.093628 -16.935898 -1.570142 -10.144389 -2.207420 0.282521 23.230806 1.370165 4.485656 -17.518010 -1.176800 0.000000 -19.851600 8.694980 -0.151728 1.720325 3.825817 8.176441 -37.642635 -0.174001 -3.096303 54.270564 -2.542465 -11.119275 -11.501463 0.337900 -0.000000 -38.102700 3.074433 -3.150198 -2.128710 0.307905 -3.418243 -3.426180 -6.292757 -3.320800 -1.234750 8.806178 -15.795348 -8.555119 -2.930519 -0.216705 -0.221345 0.000000 0.000000 0.000000 4.250446 6.278652 -0.436768 -75.597845 -6.392074 36.397091 -178.941733 -71.243534 179.937063 8.045474 -7.365072 -0.593755 -0.311950 0.848069 0.000000 0.000000 0.000000 0.000000 0.000000 0.000000 0.000000 6.497545 -10.752834 -1.090813 70.891586 -14.279709 26.331468 179.916406 72.207896 179.955465 -4.853892 11.540792 -0.517415 0.014867 -0.629875 -0.000000 0.000000 0.000000 0.000000 0.000000 0.000000 0.000000 
6.020216 16.835321 -3.309366 -166.004204 72.429269 -148.986487 -11.372732 2.447801 1.080160 -16.197363 -1.020283 -8.703245 -2.084226 0.303575 21.536056 1.085919 3.848195 -14.054915 -0.694700 0.000000 -25.081800 8.466501 -0.173960 1.866028 4.194266 8.420416 -37.491536 0.075216 -2.884829 50.875505 -2.517263 -10.765953 -11.136150 0.219200 -0.000000 -38.793100 3.459552 -3.332668 -2.246491 0.438120 -3.628551 -3.446297 -6.116014 -3.539265 -1.198444 8.676109 -16.129273 -8.631553 -2.915500 -0.215481 -0.235637 0.000000 0.000000 0.000000 4.730615 6.116701 -0.514092 -76.386754 -6.234429 36.496680 -178.920365 -70.245641 179.937429 7.808944 -7.408896 -0.580552 -0.304673 0.867300 0.000000 0.000000 0.000000 0.000000 0.000000 0.000000 0.000000 6.217065 -11.182287 -1.129098 70.396571 -14.861645 26.467579 179.900554 71.478832 179.957632 -4.390427 11.627118 -0.470201 0.002437 -0.632129 -0.000000 0.000000 0.000000 0.000000 0.000000 0.000000 0.000000 
6.251207 16.936443 -3.414371 -166.002694 71.686446 -149.060855 -11.560543 2.628525 1.052403 -15.452027 -0.433162 -7.308103 -1.946979 0.349657 19.882335 0.837029 3.261079 -10.342456 -0.291100 -0.000000 -30.897300 8.236543 -0.216819 2.005970 4.580085 8.602958 -37.190340 0.346800 -2.649681 47.171011 -2.467078 -10.325576 -10.636753 0.074700 0.000000 -39.565200 3.840795 -3.499306 -2.343869 0.565004 -3.822087 -3.464833 -5.943915 -3.741364 -1.162890 8.530112 -16.435126 -8.701286 -2.896718 -0.213974 -0.248793 0.000000 0.000000 0.000000 5.157832 5.979130 -0.580530 -77.112787 -6.075811 36.643139 -178.905728 -69.348947 179.938232 7.553171 -7.429907 -0.563887 -0.296084 0.883714 0.000000 0.000000 0.000000 0.000000 0.000000 0.000000 0.000000 5.919001 -11.577042 -1.169404 69.996474 -15.432360 26.489922 179.891009 70.882452 179.959226 -4.046213 11.654161 -0.433079 -0.007383 -0.631806 -0.000000 0.000000 0.000000 0.000000 0.000000 0.000000 0.000000 
6.482607 17.036445 -3.520695 -166.004967 70.965056 -149.147466 -11.745508 2.812026 1.016433 -14.712029 0.152922 -5.985498 -1.800944 0.415924 18.316741 0.635495 2.725972 -6.508064 0.017500 0.000000 -36.581300 8.007309 -0.278205 2.147687 4.978604 8.733234 -36.769405 0.640901 -2.387014 43.189551 -2.387977 -9.797882 -9.999315 -0.091000 -0.000000 -40.458900 4.215804 -3.644212 -2.435211 0.687765 -3.993185 -3.484389 -5.775778 -3.921444 -1.129447 8.367461 -16.713793 -8.763806 -2.872846 -0.212116 -0.260496 0.000000 0.000000 0.000000 5.547697 5.860460 -0.637815 -77.797547 -5.921799 36.835437 -178.895358 -68.550475 179.939745 7.248843 -7.433488 -0.541972 -0.285116 0.897613 0.000000 0.000000 0.000000 0.000000 0.000000 0.000000 0.000000 5.592925 -11.932041 -1.210349 69.692462 -16.018005 26.398181 179.888729 70.386789 179.960261 -3.812401 11.628398 -0.406249 -0.014848 -0.629316 -0.000000 0.000000 0.000000 0.000000 0.000000 0.000000 0.000000 
6.714198 17.133476 -3.628091 -166.000112 70.269816 -149.229023 -11.925585 2.992442 0.972602 -13.983736 0.724679 -4.757103 -1.649155 0.498758 16.884127 0.485754 2.237889 -2.626976 0.228300 -0.000001 -41.908400 7.780624 -0.355041 2.296987 5.388013 8.825969 -36.248986 0.957273 -2.092493 38.970031 -2.278595 -9.195367 -9.228957 -0.270300 -0.000000 -41.519700 4.584538 -3.762652 -2.526413 0.805925 -4.137288 -3.505939 -5.611900 -4.074779 -1.099288 8.190674 -16.965755 -8.820031 -2.843195 -0.209847 -0.270957 0.000000 0.000000 0.000000 5.911768 5.759555 -0.686863 -78.455889 -5.780322 37.070078 -178.886450 -67.847849 179.942151 6.877438 -7.417223 -0.513510 -0.271099 0.909005 -0.000000 0.000000 0.000000 0.000000 0.000000 0.000000 0.000000 5.235118 -12.242654 -1.250137 69.479540 -16.634606 26.196181 179.893856 69.959243 179.960780 -3.673129 11.561995 -0.388411 -0.020397 -0.625285 -0.000000 0.000000 0.000000 0.000000 0.000000 0.000000 0.000000 
